<svg width="50" height="50" viewBox="0 0 50 50" fill="none" xmlns="http://www.w3.org/2000/svg">
<path d="M41.3902 35.1753C40.8184 34.6035 39.8907 34.6031 39.3185 35.1753L38.2828 36.211L36.2408 34.1694C39.246 30.1559 38.9259 24.424 35.2795 20.7775C33.6529 19.1513 31.612 18.1866 29.4933 17.8833V14.6492H30.9582C31.7673 14.6492 32.423 13.9931 32.423 13.184V10.2543C32.423 7.83119 30.4516 5.85976 28.0285 5.85976H26.3115C26.4744 5.40123 26.5636 4.90837 26.5636 4.39491C26.5636 1.97144 24.5922 0 22.1687 0C20.2126 0 18.3601 0.757599 16.9529 2.13356C16.6821 2.39792 16.4349 2.67906 16.2117 2.97432C15.9882 2.67906 15.741 2.39792 15.4705 2.13356C14.0629 0.757599 12.2105 0 10.2543 0C7.83119 0 5.85976 1.97144 5.85976 4.39491C5.85976 4.90837 5.94902 5.40123 6.11153 5.85976H4.39453C1.97144 5.85976 0 7.83119 0 10.2543V13.184C0 13.9931 0.655746 14.6492 1.46484 14.6492H2.92969V30.9582C2.92969 31.7673 3.58582 32.4234 4.39453 32.4234H18.7637C19.2528 33.4568 19.9238 34.4254 20.7775 35.2795C24.3999 38.9019 30.1281 39.2666 34.1694 36.2411L36.211 38.2828L35.1753 39.3188C34.6031 39.8907 34.6031 40.8184 35.1753 41.3902L42.4999 48.7148C44.2135 50.4284 47.0013 50.4284 48.7148 48.7148C50.4284 47.0016 50.4284 44.2135 48.7148 42.4999L41.3902 35.1753ZM29.4933 10.2543V11.7191H17.6765V8.78944H28.0285C28.8361 8.78944 29.4933 9.44672 29.4933 10.2543ZM22.1687 2.92969C22.9767 2.92969 23.634 3.58696 23.634 4.39491C23.634 5.20248 22.9767 5.85976 22.1687 5.85976H17.9443C18.5768 4.17213 20.256 2.92969 22.1687 2.92969ZM8.78944 4.39491C8.78944 3.58696 9.44672 2.92969 10.2543 2.92969C12.1674 2.92969 13.8466 4.17213 14.4791 5.85976H10.2543C9.44672 5.85976 8.78944 5.20248 8.78944 4.39491ZM2.92969 10.2543C2.92969 9.44672 3.58696 8.78944 4.39453 8.78944H14.7469V11.7191H2.92969V10.2543ZM5.85976 29.4933V14.6492H14.7469V19.239C14.7469 20.0481 15.4026 20.7039 16.2117 20.7039C17.0208 20.7039 17.6765 20.0481 17.6765 19.239V14.6492H26.5636V17.8833C24.445 18.1866 22.4041 19.1513 20.7775 20.7775C18.4059 23.1495 17.4412 26.4038 17.8833 29.4933H5.85976ZM22.8493 33.2077C19.9936 30.352 19.9936 25.705 22.8493 22.8493C25.705 19.9936 30.352 19.9936 33.2077 22.8493C36.0634 25.7053 36.0634 30.352 33.2077 33.2077C30.352 36.0634 25.705 36.0634 22.8493 33.2077ZM46.6431 46.6431C46.072 47.2145 45.1427 47.2145 44.5713 46.6431L38.2828 40.3545L40.3545 38.2828L46.6431 44.5713C47.2145 45.1427 47.2145 46.072 46.6431 46.6431Z" fill="#DD4141"/>
</svg>