<svg width="24" height="23" viewBox="0 0 24 23" fill="none" xmlns="http://www.w3.org/2000/svg">
<path d="M4.57377 18.1966C2.53799 15.9389 2.71758 12.4646 4.97529 10.4288L12.7733 3.39734C14.4146 1.91739 16.9426 2.04807 18.4226 3.68936C19.9025 5.33065 19.7719 7.85872 18.1306 9.33867L11.8179 15.0308C10.793 15.9549 9.21123 15.8732 8.2871 14.8483C7.36296 13.8234 7.44473 12.2416 8.46961 11.3175L14.0396 6.295L15.3789 7.78034L9.74209 12.8631C9.33362 13.2314 10.0033 13.9741 10.4118 13.6057L16.7913 7.85334C17.6082 7.11671 17.6739 5.84562 16.9373 5.02868C16.2006 4.21175 14.9295 4.14605 14.1126 4.88268L6.31461 11.9141C4.88127 13.2066 4.76665 15.4239 6.0591 16.8573C7.35155 18.2906 9.5689 18.4052 11.0022 17.1128L18.0576 10.751L19.3969 12.2363L12.3416 18.5981C10.0839 20.6339 6.60954 20.4543 4.57377 18.1966Z" fill="#323232"/>
</svg>