<svg width="90" height="17" viewBox="0 0 90 17" fill="none" xmlns="http://www.w3.org/2000/svg">
<path d="M17.5432 6.23958L12.2366 10.0596L13.9194 16.0877L8.63598 12.5213L3.14063 16.082L5.18157 10.0562L0.103434 6.23003L6.64793 6.07256L9.00455 0.147143L11.0075 6.07491L17.5432 6.23958Z" fill="#FFC600"/>
<path d="M89.5432 6.23958L84.2366 10.0596L85.9194 16.0877L80.636 12.5213L75.1406 16.082L77.1816 10.0562L72.1034 6.23003L78.6479 6.07256L81.0045 0.147143L83.0075 6.07491L89.5432 6.23958Z" fill="#FFC600"/>
<path d="M71.5432 6.23958L66.2366 10.0596L67.9194 16.0877L62.636 12.5213L57.1406 16.082L59.1816 10.0562L54.1034 6.23003L60.6479 6.07256L63.0045 0.147143L65.0075 6.07491L71.5432 6.23958Z" fill="#FFC600"/>
<path d="M53.5432 6.23958L48.2366 10.0596L49.9194 16.0877L44.636 12.5213L39.1406 16.082L41.1816 10.0562L36.1034 6.23003L42.6479 6.07256L45.0045 0.147143L47.0075 6.07491L53.5432 6.23958Z" fill="#FFC600"/>
<path d="M35.5432 6.23958L30.2366 10.0596L31.9194 16.0877L26.636 12.5213L21.1406 16.082L23.1816 10.0562L18.1034 6.23003L24.6479 6.07256L27.0045 0.147143L29.0075 6.07491L35.5432 6.23958Z" fill="#FFC600"/>
</svg>